<?xml version="1.0" encoding="UTF-8"?>
<svg width="35px" height="14px" viewBox="0 0 35 14" version="1.1" xmlns="http://www.w3.org/2000/svg" xmlns:xlink="http://www.w3.org/1999/xlink">
    <!-- Generator: Sketch 51.3 (57544) - http://www.bohemiancoding.com/sketch -->
    <title>arrow</title>
    <desc>Created with Sketch.</desc>
    <defs>
        <polygon id="path-1" points="0 0 35 0 35 14 0 14"></polygon>
    </defs>
    <g id="Symbols" stroke="none" stroke-width="1" fill="none" fill-rule="evenodd">
        <g id="button" transform="translate(-130.000000, -16.000000)">
            <g id="arrow" transform="translate(130.000000, 16.000000)">
                <g id="Group-3">
                    <mask id="mask-2" fill="white">
                        <use xlink:href="#path-1"></use>
                    </mask>
                    <g id="Clip-2"></g>
                    <path d="M35,6.99831657 C35,6.7826529 34.8949969,6.5965322 34.7405806,6.46358884 C34.734404,6.45472595 34.7374923,6.44290877 34.7282273,6.43404588 L27.007412,0.170936645 C26.6831377,-0.086087177 26.1951822,-0.0506356153 25.9172329,0.259565549 C25.6423718,0.569766714 25.6825201,1.03654561 26.0067943,1.29947803 L32.12168,6.25974236 L0.772081532,6.25974236 C0.3428042,6.25974236 0,6.59062361 0,6.99831657 C0,7.40600953 0.3428042,7.73689077 0.772081532,7.73689077 L32.12168,7.73689077 L26.0067943,12.6971551 C25.6825201,12.9600875 25.6423718,13.4268664 25.9172329,13.7370676 C26.0716492,13.9113711 26.287832,14 26.5071032,14 C26.6831377,14 26.8622607,13.9409141 27.007412,13.8256965 L34.7282273,7.56258726 C34.7374923,7.55372437 34.734404,7.54190718 34.7405806,7.53304429 C34.8949969,7.40010093 35,7.21398023 35,6.99831657" id="Fill-1" fill="#000000" mask="url(#mask-2)"></path>
                </g>
            </g>
        </g>
    </g>
</svg>