<?xml version="1.0" encoding="utf-8"?>
<!-- Generator: Adobe Illustrator 22.1.0, SVG Export Plug-In . SVG Version: 6.00 Build 0)  -->
<svg version="1.1" id="Layer_1" xmlns="http://www.w3.org/2000/svg" xmlns:xlink="http://www.w3.org/1999/xlink" x="0px" y="0px"
	 viewBox="0 0 22 22" style="enable-background:new 0 0 22 22;" xml:space="preserve">
<style type="text/css">
	.st0{fill:#231F20;}
</style>
<g>
	<path class="st0" d="M16.1,10.1h-4.2V3.9C11.9,3.4,11.5,3,11,3c-0.5,0-0.9,0.4-0.9,0.9V11c0,0.5,0.4,0.9,0.9,0.9h5.1
		c0.5,0,0.9-0.4,0.9-0.9C17,10.5,16.6,10.1,16.1,10.1z"/>
	<path class="st0" d="M11,0.5C5.2,0.5,0.5,5.2,0.5,11S5.2,21.5,11,21.5S21.5,16.8,21.5,11S16.8,0.5,11,0.5z M11,19.7
		c-4.8,0-8.7-3.9-8.7-8.7S6.2,2.3,11,2.3s8.7,3.9,8.7,8.7S15.8,19.7,11,19.7z"/>
</g>
</svg>
