<?xml version="1.0" encoding="UTF-8"?>
<svg width="16px" height="15px" viewBox="0 0 16 15" version="1.1" xmlns="http://www.w3.org/2000/svg" xmlns:xlink="http://www.w3.org/1999/xlink">
    <!-- Generator: Sketch 51.3 (57544) - http://www.bohemiancoding.com/sketch -->
    <title>Group 4 Copy 2</title>
    <desc>Created with Sketch.</desc>
    <defs></defs>
    <g id="Page-1" stroke="none" stroke-width="1" fill="none" fill-rule="evenodd">
        <g id="Group-4-Copy-2" transform="translate(7.849242, 7.849242) rotate(-315.000000) translate(-7.849242, -7.849242) translate(-2.650758, -2.650758)" fill="#000000" fill-rule="nonzero">
            <path d="M0.537753022,10.7550604 C0.240760229,10.7550604 0,10.5143002 0,10.2173074 C0,9.92031463 0.240760229,9.6795544 0.537753022,9.6795544 L19.8968618,9.6795544 C20.1938546,9.6795544 20.4346149,9.92031463 20.4346149,10.2173074 C20.4346149,10.5143002 20.1938546,10.7550604 19.8968618,10.7550604 L0.537753022,10.7550604 Z" id="Line" transform="translate(10.217307, 10.217307) rotate(-270.000000) translate(-10.217307, -10.217307) "></path>
            <path d="M0.537753022,10.7550604 C0.240760229,10.7550604 0,10.5143002 0,10.2173074 C0,9.92031463 0.240760229,9.6795544 0.537753022,9.6795544 L19.8968618,9.6795544 C20.1938546,9.6795544 20.4346149,9.92031463 20.4346149,10.2173074 C20.4346149,10.5143002 20.1938546,10.7550604 19.8968618,10.7550604 L0.537753022,10.7550604 Z" id="Line-Copy"></path>
        </g>
    </g>
</svg>