<?xml version="1.0" encoding="UTF-8"?>
<svg width="2px" height="2px" viewBox="0 0 2 2" version="1.1" xmlns="http://www.w3.org/2000/svg" xmlns:xlink="http://www.w3.org/1999/xlink">
    <!-- Generator: Sketch 51.3 (57544) - http://www.bohemiancoding.com/sketch -->
    <title>·</title>
    <desc>Created with Sketch.</desc>
    <defs></defs>
    <g id="Page-1" stroke="none" stroke-width="1" fill="none" fill-rule="evenodd">
        <g id="bett3" transform="translate(-1220.000000, -756.000000)" fill="#000000">
            <path d="M1220.235,756.88 C1220.235,756.680667 1220.3065,756.511667 1220.4495,756.373 C1220.5925,756.234333 1220.75933,756.165 1220.95,756.165 C1221.14933,756.165 1221.31833,756.234333 1221.457,756.373 C1221.59567,756.511667 1221.665,756.680667 1221.665,756.88 C1221.665,757.070667 1221.59567,757.2375 1221.457,757.3805 C1221.31833,757.5235 1221.14933,757.595 1220.95,757.595 C1220.75933,757.595 1220.5925,757.5235 1220.4495,757.3805 C1220.3065,757.2375 1220.235,757.070667 1220.235,756.88 Z" id="·" transform="translate(1220.950000, 756.880000) scale(-1, 1) translate(-1220.950000, -756.880000) "></path>
        </g>
    </g>
</svg>