<?xml version="1.0" encoding="UTF-8"?>
<svg width="15px" height="16px" viewBox="0 0 15 16" version="1.1" xmlns="http://www.w3.org/2000/svg" xmlns:xlink="http://www.w3.org/1999/xlink">
    <!-- Generator: Sketch 51.3 (57544) - http://www.bohemiancoding.com/sketch -->
    <title>Group 3</title>
    <desc>Created with Sketch.</desc>
    <defs>
        <polygon id="path-1" points="0.000129245637 -0.000136 14.0670951 -0.000136 14.0670951 14.801832 0.000129245637 14.801832"></polygon>
    </defs>
    <g id="Page-1" stroke="none" stroke-width="1" fill="none" fill-rule="evenodd">
        <g id="home" transform="translate(-755.000000, -2522.000000)">
            <g id="social" transform="translate(755.000000, 2522.000000)">
                <g id="Group-3" transform="translate(0.000000, 0.680000)">
                    <mask id="mask-2" fill="white">
                        <use xlink:href="#path-1"></use>
                    </mask>
                    <g id="Clip-2"></g>
                    <path d="M13.2904581,-0.000136 L0.775603068,-0.000136 C0.347800009,-0.000136 0.000129245637,0.365704 0.000129245637,0.817224 L0.000129245637,13.984744 C0.000129245637,14.436264 0.347800009,14.802104 0.775603068,14.802104 L7.51317813,14.802104 L7.51317813,9.069704 L5.680475,9.069704 L5.680475,6.835224 L7.51317813,6.835224 L7.51317813,5.188264 C7.51317813,3.276104 8.62339815,2.235704 10.2441384,2.235704 C11.0196123,2.235704 11.6878122,2.295544 11.8816807,2.322744 L11.8816807,4.321944 L10.7585361,4.321944 C9.87578837,4.321944 9.70647659,4.762584 9.70647659,5.409944 L9.70647659,6.835224 L11.8080106,6.835224 L11.5340099,9.069704 L9.70647659,9.069704 L9.70647659,14.802104 L13.2904581,14.802104 C13.7195536,14.802104 14.0672244,14.436264 14.0672244,13.984744 L14.0672244,0.817224 C14.0672244,0.365704 13.7195536,-0.000136 13.2904581,-0.000136" id="Fill-1" fill="#000000" mask="url(#mask-2)"></path>
                </g>
            </g>
        </g>
    </g>
</svg>