<?xml version="1.0" encoding="UTF-8"?>
<svg width="19px" height="16px" viewBox="0 0 19 16" version="1.1" xmlns="http://www.w3.org/2000/svg" xmlns:xlink="http://www.w3.org/1999/xlink">
    <!-- Generator: Sketch 51.3 (57544) - http://www.bohemiancoding.com/sketch -->
    <title>Group 4</title>
    <desc>Created with Sketch.</desc>
    <defs></defs>
    <g id="Page-1" stroke="none" stroke-width="1" fill="none" fill-rule="evenodd">
        <g id="home" transform="translate(-293.000000, -22.000000)" fill="#000000" fill-rule="nonzero">
            <g id="Group-4" transform="translate(293.000000, 23.000000)">
                <path d="M0.5,0.75 C0.223857625,0.75 0,0.526142375 0,0.25 C0,-0.0261423749 0.223857625,-0.25 0.5,-0.25 L18.5,-0.25 C18.7761424,-0.25 19,-0.0261423749 19,0.25 C19,0.526142375 18.7761424,0.75 18.5,0.75 L0.5,0.75 Z" id="Line"></path>
                <path d="M0.5,7.75 C0.223857625,7.75 0,7.52614237 0,7.25 C0,6.97385763 0.223857625,6.75 0.5,6.75 L18.5,6.75 C18.7761424,6.75 19,6.97385763 19,7.25 C19,7.52614237 18.7761424,7.75 18.5,7.75 L0.5,7.75 Z" id="Line-Copy"></path>
                <path d="M7.5,14.75 C7.22385763,14.75 7,14.5261424 7,14.25 C7,13.9738576 7.22385763,13.75 7.5,13.75 L18.5,13.75 C18.7761424,13.75 19,13.9738576 19,14.25 C19,14.5261424 18.7761424,14.75 18.5,14.75 L7.5,14.75 Z" id="Line-Copy-2"></path>
            </g>
        </g>
    </g>
</svg>