<?xml version="1.0" encoding="UTF-8"?>
<svg width="15px" height="16px" viewBox="0 0 15 16" version="1.1" xmlns="http://www.w3.org/2000/svg" xmlns:xlink="http://www.w3.org/1999/xlink">
    <!-- Generator: Sketch 51.3 (57544) - http://www.bohemiancoding.com/sketch -->
    <title>Group 8</title>
    <desc>Created with Sketch.</desc>
    <defs>
        <polygon id="path-1" points="0 0.081736 14.1416699 0.081736 14.1416699 14.96 0 14.96"></polygon>
    </defs>
    <g id="Page-1" stroke="none" stroke-width="1" fill="none" fill-rule="evenodd">
        <g id="home" transform="translate(-785.000000, -2523.000000)">
            <g id="social" transform="translate(755.000000, 2522.000000)">
                <g id="Group-8" transform="translate(30.000000, 0.680000)">
                    <g id="Group-3" transform="translate(0.000000, 0.598264)">
                        <mask id="mask-2" fill="white">
                            <use xlink:href="#path-1"></use>
                        </mask>
                        <g id="Clip-2"></g>
                        <path d="M7.06805616,0.081736 C5.14875844,0.081736 4.90836156,0.089896 4.15356704,0.126616 C3.40135743,0.161976 2.8869598,0.288456 2.43847743,0.472056 C1.97319314,0.661096 1.57899395,0.916776 1.18737967,1.330216 C0.794472931,1.743656 0.55278359,2.159816 0.370547242,2.648056 C0.196065631,3.119976 0.075867189,3.659896 0.0422633233,4.454136 C0.00865945768,5.245656 -0.000387736911,5.499976 -0.000387736911,7.519576 C-0.000387736911,9.539176 0.00865945768,9.793496 0.0422633233,10.587736 C0.075867189,11.379256 0.196065631,11.919176 0.370547242,12.393816 C0.550198677,12.884776 0.794472931,13.298216 1.18737967,13.710296 C1.57899395,14.125096 1.97577805,14.378056 2.43847743,14.569816 C2.8869598,14.753416 3.40135743,14.879896 4.15615195,14.915256 C4.91094647,14.951976 5.14875844,14.960136 7.07064107,14.960136 C8.99381615,14.960136 9.23162812,14.951976 9.98642264,14.915256 C10.7386322,14.879896 11.2517374,14.753416 11.7040972,14.569816 C12.1693815,14.382136 12.5622882,14.125096 12.9551949,13.710296 C13.3481017,13.298216 13.589791,12.882056 13.7720274,12.393816 C13.9452165,11.921896 14.0667074,11.381976 14.1003113,10.587736 C14.1339151,9.793496 14.1416699,9.541896 14.1416699,7.519576 C14.1416699,5.497256 14.1339151,5.245656 14.1003113,4.451416 C14.0667074,3.659896 13.9452165,3.119976 13.7720274,2.645336 C13.5923759,2.154376 13.3481017,1.740936 12.9551949,1.328856 C12.5622882,0.914056 12.1667965,0.661096 11.7040972,0.469336 C11.2543223,0.285736 10.7412172,0.159256 9.98642264,0.122536 C9.22904321,0.089896 8.98735387,0.081736 7.06805616,0.081736 M7.06805616,1.422696 C8.95633491,1.422696 9.17863741,1.430856 9.92438473,1.466216 C10.6145564,1.498856 10.9880763,1.619896 11.2388129,1.723256 C11.5683892,1.859256 11.8049088,2.018376 12.0517679,2.278136 C12.2986271,2.537896 12.4537219,2.786776 12.5790901,3.134936 C12.6747319,3.397416 12.7923454,3.790456 12.8233644,4.516696 C12.8569682,5.301416 12.864723,5.535336 12.864723,7.522296 C12.864723,9.509256 12.8569682,9.743176 12.8233644,10.527896 C12.7923454,11.254136 12.6773168,11.647176 12.5790901,11.909656 C12.4498445,12.259176 12.2986271,12.506696 12.0517679,12.766456 C11.8049088,13.026216 11.5683892,13.188056 11.2388129,13.321336 C10.9880763,13.421976 10.6145564,13.545736 9.92438473,13.578376 C9.17863741,13.613736 8.95633491,13.623256 7.06805616,13.623256 C5.1797774,13.623256 4.95876736,13.613736 4.21172758,13.578376 C3.52155587,13.545736 3.14803598,13.424696 2.8985919,13.321336 C2.56772307,13.185336 2.33120356,13.026216 2.08563685,12.766456 C1.83748522,12.506696 1.68368291,12.259176 1.55702219,11.909656 C1.46267287,11.647176 1.34376689,11.254136 1.31274794,10.527896 C1.27914407,9.743176 1.27138933,9.509256 1.27138933,7.522296 C1.27138933,5.535336 1.27914407,5.301416 1.31274794,4.516696 C1.34376689,3.790456 1.45879551,3.397416 1.55702219,3.134936 C1.68626783,2.786776 1.83748522,2.537896 2.08563685,2.278136 C2.33120356,2.018376 2.56772307,1.856536 2.8985919,1.723256 C3.14803598,1.622616 3.52155587,1.498856 4.21172758,1.466216 C4.95876736,1.428136 5.1797774,1.422696 7.06805616,1.422696" id="Fill-1" fill="#000000" mask="url(#mask-2)"></path>
                    </g>
                    <path d="M7.06805616,10.597664 C5.76655259,10.597664 4.71061573,9.487904 4.71061573,8.117024 C4.71061573,6.747504 5.76655259,5.637744 7.06805616,5.637744 C8.36955972,5.637744 9.42549658,6.747504 9.42549658,8.117024 C9.42549658,9.487904 8.36955972,10.597664 7.06805616,10.597664 M7.06805616,4.296784 C5.06474878,4.296784 3.43754621,6.006304 3.43754621,8.117024 C3.43754621,10.229104 5.06474878,11.938624 7.06805616,11.938624 C9.07136353,11.938624 10.6998586,10.226384 10.6998586,8.117024 C10.6998586,6.009024 9.07136353,4.296784 7.06805616,4.296784" id="Fill-4" fill="#000000"></path>
                    <path d="M10.8425457,3.25448 C11.3104149,3.25448 11.6891047,3.65432 11.6891047,4.14664 C11.6891047,4.63896 11.3104149,5.0388 10.8425457,5.0388 C10.3746765,5.0388 9.99469436,4.63896 9.99469436,4.14664 C9.99469436,3.65432 10.3746765,3.25448 10.8425457,3.25448" id="Fill-6" fill="#000000"></path>
                </g>
            </g>
        </g>
    </g>
</svg>