<?xml version="1.0" encoding="utf-8"?>
<!-- Generator: Adobe Illustrator 22.1.0, SVG Export Plug-In . SVG Version: 6.00 Build 0)  -->
<svg version="1.1" id="Layer_1" xmlns="http://www.w3.org/2000/svg" xmlns:xlink="http://www.w3.org/1999/xlink" x="0px" y="0px"
	 viewBox="0 0 19 24" style="enable-background:new 0 0 19 24;" xml:space="preserve">
<style type="text/css">
	.st0{fill:#231F20;}
</style>
<title>Group 6</title>
<desc>Created with Sketch.</desc>
<g>
	<path class="st0" d="M9.3,0.6c-4.8,0-8.4,4-8.4,9.3c0,6.4,7,13.5,8.4,13.5c1.4,0,8.4-7.1,8.4-13.5C17.7,4.6,14,0.6,9.3,0.6z
		 M9.3,21.2c-1.5-1.3-6.4-6.4-6.4-11.2c0-4.2,2.7-7.3,6.3-7.3s6.3,3.1,6.3,7.3C15.6,14.8,10.8,19.9,9.3,21.2z"/>
	<path class="st0" d="M9.3,5.2C6.9,5.2,5,7.1,5,9.4c0,2.3,1.9,4.2,4.2,4.2c2.3,0,4.2-1.9,4.2-4.2C13.5,7.1,11.6,5.2,9.3,5.2z
		 M9.3,11.6c-1.2,0-2.2-1-2.2-2.2c0-1.2,1-2.2,2.2-2.2c1.2,0,2.2,1,2.2,2.2C11.4,10.6,10.4,11.6,9.3,11.6z"/>
</g>
</svg>
