<?xml version="1.0" encoding="utf-8"?>
<!-- Generator: Adobe Illustrator 22.1.0, SVG Export Plug-In . SVG Version: 6.00 Build 0)  -->
<svg version="1.1" id="Layer_1" xmlns="http://www.w3.org/2000/svg" xmlns:xlink="http://www.w3.org/1999/xlink" x="0px" y="0px"
	 viewBox="0 0 14 16" style="enable-background:new 0 0 14 16;" xml:space="preserve">
<style type="text/css">
	.st0{fill:#010202;}
</style>
<title>Group 7</title>
<desc>Created with Sketch.</desc>
<g id="Page-1">
	<g id="home" transform="translate(-815.000000, -2522.000000)">
		<g id="social" transform="translate(755.000000, 2522.000000)">
			<g id="Group-7" transform="translate(60.000000, 0.000000)">
				<g id="Clip-2">
				</g>
				<g id="Clip-5">
				</g>
			</g>
		</g>
	</g>
</g>
<g>
	<path class="st0" d="M7,0.7C3.1,0.7,0,4,0,8c0,3.1,1.8,5.7,4.3,6.8C4,12.4,4.9,10.6,5.3,8.7C4.6,7.5,5.3,5.2,6.8,5.8
		c1.8,0.7-1.5,4.3,0.7,4.7c2.3,0.5,3.2-4,1.8-5.5C7.2,2.9,3.3,5,3.7,8c0.1,0.4,0.6,1,0.6,1s0,0.4-0.2,1C2.9,9.7,2.3,8.6,2.4,7.2
		c0.1-2.3,2-3.9,4-4.1c2.5-0.3,4.8,0.9,5.1,3.3c0.4,2.6-1.1,5.5-3.8,5.3c-0.7-0.1-1-0.4-1.6-0.8c-0.3,1.6-0.7,3.1-1.7,3.9
		c0.8,0.3,1.6,0.5,2.5,0.5c3.9,0,7-3.3,7-7.3C13.9,4,10.8,0.7,7,0.7z"/>
	<path class="st0" d="M4.3,15c0,0,0.1-0.1,0.1-0.1c0,0-0.1,0-0.1-0.1C4.3,14.9,4.3,14.9,4.3,15z"/>
</g>
</svg>
