<?xml version="1.0" encoding="UTF-8"?>
<svg width="14px" height="13px" viewBox="0 0 14 13" version="1.1" xmlns="http://www.w3.org/2000/svg" xmlns:xlink="http://www.w3.org/1999/xlink">
    <!-- Generator: Sketch 51.3 (57544) - http://www.bohemiancoding.com/sketch -->
    <title>Group 3</title>
    <desc>Created with Sketch.</desc>
    <defs>
        <polygon id="path-1" points="0 0.0004488 14.0813122 0.0004488 14.0813122 12.2944408 0 12.2944408"></polygon>
    </defs>
    <g id="Page-1" stroke="none" stroke-width="1" fill="none" fill-rule="evenodd">
        <g id="home" transform="translate(-845.000000, -2523.000000)">
            <g id="social" transform="translate(755.000000, 2522.000000)">
                <g id="Group-3" transform="translate(90.000000, 1.360000)">
                    <mask id="mask-2" fill="white">
                        <use xlink:href="#path-1"></use>
                    </mask>
                    <g id="Clip-2"></g>
                    <path d="M-0.000646228185,10.9004408 C0.225533637,10.9290008 0.456883327,10.9439608 0.688233017,10.9439608 C2.04272729,10.9439608 3.28865524,10.4475608 4.27738436,9.6152408 C3.01206957,9.5907608 1.94579307,8.6918008 1.57873546,7.4596408 C1.75450952,7.4963608 1.93545342,7.5154008 2.12285959,7.5154008 C2.38522823,7.5154008 2.64113459,7.4773208 2.88282394,7.4066008 C1.56193352,7.1210008 0.565449662,5.8670808 0.565449662,4.3629208 L0.565449662,4.3234808 C0.95447903,4.5560408 1.40037648,4.6961208 1.87341551,4.7124408 C1.09923414,4.1562008 0.588713877,3.2055608 0.588713877,2.1284408 C0.588713877,1.5599608 0.730884078,1.0268408 0.980328157,0.5685208 C2.40461508,2.4466808 4.53458318,3.6815608 6.93467466,3.8107608 C6.88556132,3.5836408 6.86100464,3.3470008 6.86100464,3.1035608 C6.86100464,1.3899608 8.15346102,4.08e-05 9.74835218,4.08e-05 C10.5806941,4.08e-05 11.3316112,0.3767608 11.857641,0.9806008 C12.5155013,0.8418808 13.1332954,0.5834808 13.692929,0.2271608 C13.4770888,0.9520408 13.0182668,1.5599608 12.421152,1.9448408 C13.0053422,1.8686808 13.5623909,1.7027608 14.0819584,1.4552408 C13.6942215,2.0781208 13.2043805,2.6248408 12.6395771,3.0627608 C12.6447469,3.1946808 12.6473318,3.3293208 12.6473318,3.4639608 C12.6473318,7.5657208 9.74188989,12.2944408 4.42860175,12.2944408 C2.79752181,12.2944408 1.27759312,11.7803608 -0.000646228185,10.9004408" id="Fill-1" fill="#000000" mask="url(#mask-2)"></path>
                </g>
            </g>
        </g>
    </g>
</svg>