<?xml version="1.0" encoding="utf-8"?>
<!-- Generator: Adobe Illustrator 22.1.0, SVG Export Plug-In . SVG Version: 6.00 Build 0)  -->
<svg version="1.1" id="Layer_1" xmlns="http://www.w3.org/2000/svg" xmlns:xlink="http://www.w3.org/1999/xlink" x="0px" y="0px"
	 viewBox="0 0 22 22" style="enable-background:new 0 0 22 22;" xml:space="preserve">
<style type="text/css">
	.st0{fill:#231F20;}
</style>
<g>
	<path class="st0" d="M11.6,0.5c-5.5,0-9.9,4.4-9.9,9.9c0,2.4,0.9,4.6,2.3,6.3L0.7,20c-0.3,0.3-0.3,0.9,0,1.3
		c0.2,0.2,0.4,0.3,0.6,0.3s0.5-0.1,0.6-0.3L5.3,18c1.7,1.4,3.9,2.3,6.3,2.3c5.5,0,9.9-4.4,9.9-9.9C21.5,4.9,17.1,0.5,11.6,0.5z
		 M11.6,18.5c-4.5,0-8.1-3.6-8.1-8.1s3.6-8.1,8.1-8.1s8.1,3.6,8.1,8.1S16.1,18.5,11.6,18.5z"/>
	<path class="st0" d="M15,9.5h-2.5V7c0-0.5-0.4-0.9-0.9-0.9c-0.5,0-0.9,0.4-0.9,0.9v2.5H8.3c-0.5,0-0.9,0.4-0.9,0.9
		c0,0.5,0.4,0.9,0.9,0.9h2.5v2.5c0,0.5,0.4,0.9,0.9,0.9c0.5,0,0.9-0.4,0.9-0.9v-2.5H15c0.5,0,0.9-0.4,0.9-0.9
		C15.9,9.9,15.5,9.5,15,9.5z"/>
</g>
</svg>
