<?xml version="1.0" encoding="utf-8"?>
<!-- Generator: Adobe Illustrator 22.1.0, SVG Export Plug-In . SVG Version: 6.00 Build 0)  -->
<svg version="1.1" id="Layer_1" xmlns="http://www.w3.org/2000/svg" xmlns:xlink="http://www.w3.org/1999/xlink" x="0px" y="0px"
	 viewBox="0 0 153.3 39" style="enable-background:new 0 0 153.3 39;" xml:space="preserve">
<title>Group 30</title>
<desc>Created with Sketch.</desc>
<g>
	<g>
		<path d="M42.8,10.3c-0.2-0.4,0-0.8,0.4-0.8H46c0.3,0,0.5,0.2,0.6,0.3l2.6,5.9c0,0,0.1,0,0.1,0l2.7-5.9c0.2-0.3,0.4-0.3,0.8-0.3
			h2.5c0.5,0,0.7,0.3,0.4,0.8l-5.8,11.9c-0.1,0.2-0.3,0.3-0.5,0.3h-0.2c-0.3,0-0.4-0.2-0.5-0.3L42.8,10.3z"/>
		<path d="M63.2,9.2c3.6,0,6.5,3,6.5,6.6c0,3.6-2.9,6.7-6.5,6.7c-3.6,0-6.5-3-6.5-6.7C56.7,12.2,59.6,9.2,63.2,9.2z M63.2,19.1
			c1.7,0,3-1.5,3-3.3c0-1.8-1.4-3.2-3-3.2c-1.7,0-3,1.4-3,3.2C60.2,17.6,61.5,19.1,63.2,19.1z"/>
		<path d="M72.5,0.6c0-0.3,0.3-0.6,0.6-0.6h2.7c0.3,0,0.6,0.3,0.6,0.6v21c0,0.3-0.3,0.6-0.6,0.6h-2.7c-0.3,0-0.6-0.3-0.6-0.6V0.6z"
			/>
		<path d="M80.4,1.5c0-0.3,0.3-0.6,0.6-0.6h2.6c0.3,0,0.6,0.3,0.6,0.6v6.2c0,1.7,0.9,2.7,2.3,2.7c1.3,0,2.3-1.2,2.5-2.4V1.5
			c0-0.5,0.2-0.6,0.7-0.6h2.4c0.3,0,0.6,0.3,0.6,0.6V13c0,0.3-0.3,0.6-0.6,0.6H91c-0.3,0-0.5-0.2-0.6-0.5l-0.4-1
			c-0.6,0.5-1.7,1.8-4.2,1.8c-3.9,0-5.3-3-5.3-6.2V1.5z"/>
		<path d="M96.1,10.1c0-0.3,0.3-0.6,0.6-0.6h1.2c0.3,0,0.5,0.2,0.5,0.3l0.4,1.2c0.5-0.6,2-1.9,4.2-1.9c1.8,0,3.1,0.7,4.1,2
			c0.5-0.6,2.2-2,4.5-2c4.1,0,5.5,3,5.5,6.3v6c0,0.3-0.3,0.6-0.6,0.6H114c-0.3,0-0.6-0.3-0.6-0.6v-6.3c0-1.6-0.8-2.7-2.4-2.7
			c-1.8,0-2.7,1.3-2.7,1.3s0,0.6,0,1.2v6.4c0,0.3-0.3,0.6-0.6,0.6h-2.4c-0.3,0-0.6-0.3-0.6-0.6v-6.3c0-1.6-0.7-2.7-2.3-2.7
			c-1.6,0-2.3,1.1-2.7,2v7c0,0.3-0.3,0.6-0.6,0.6h-2.6c-0.3,0-0.6-0.3-0.6-0.6V10.1z"/>
		<path d="M126.3,9.2c3.3,0,5.9,2.5,5.9,5.9c0,0.2,0,0.6-0.1,0.9c0,0.3-0.3,0.5-0.6,0.5h-8.1c0.1,1.3,1.2,2.8,3,2.8
			c1,0,1.9-0.4,2.5-0.8c0.3-0.2,0.6-0.3,0.8,0l1.3,1.5c0.2,0.2,0.3,0.6,0,0.8c-1,1-2.7,1.7-4.7,1.7c-3.8,0-6.5-3-6.5-6.6
			C119.8,12.2,122.5,9.2,126.3,9.2z M128.5,14.2c-0.1-1.2-1.1-2.2-2.3-2.2c-1.3,0-2.3,0.9-2.5,2.2H128.5z"/>
		<path d="M134.8,10.1c0-0.3,0.3-0.6,0.6-0.6h1.2c0.3,0,0.4,0.2,0.5,0.4l0.4,1.2c0.5-0.5,2-1.9,4.5-1.9c4,0,5.6,3,5.6,6.3v6.1
			c0,0.3-0.3,0.6-0.6,0.6h-2.6c-0.3,0-0.6-0.3-0.6-0.6v-6.3c0-1.6-0.9-2.7-2.4-2.7c-1.6,0-2.7,1.1-3,2v7c0,0.4-0.2,0.6-0.8,0.6h-2.3
			c-0.3,0-0.6-0.3-0.6-0.6V10.1z"/>
		<path d="M43.6,26.5c-0.2-0.4,0.1-0.7,0.5-0.7h2.3c0.2,0,0.5,0.2,0.6,0.4l1.9,5.7h0l3.2-6.1c0.1-0.1,0.2-0.3,0.5-0.3h0.3
			c0.3,0,0.4,0.1,0.5,0.3l3.2,6.1h0l1.9-5.7c0.1-0.3,0.4-0.4,0.7-0.4h2.1c0.4,0,0.7,0.3,0.6,0.7l-4,11.9c-0.1,0.2-0.3,0.3-0.6,0.3
			h-0.1c-0.3,0-0.4-0.1-0.5-0.3l-4-7.4h0l-4,7.4c-0.1,0.2-0.3,0.3-0.5,0.3h-0.2c-0.3,0-0.5-0.2-0.5-0.3L43.6,26.5z"/>
		<path d="M70.3,25.5c3.6,0,6.5,3,6.5,6.6c0,3.6-2.9,6.7-6.5,6.7c-3.6,0-6.5-3-6.5-6.7C63.9,28.5,66.8,25.5,70.3,25.5z M70.3,35.3
			c1.7,0,3-1.5,3-3.3c0-1.8-1.4-3.2-3-3.2c-1.7,0-3,1.4-3,3.2C67.3,33.9,68.6,35.3,70.3,35.3z"/>
		<path d="M79.6,16.9c0-0.3,0.3-0.6,0.6-0.6h2.7c0.3,0,0.6,0.3,0.6,0.6v9.6c0.6-0.5,1.9-1,3.4-1c4,0,5.7,3.1,5.7,6.3v6.1
			c0,0.3-0.3,0.6-0.6,0.6h-2.6c-0.3,0-0.6-0.3-0.6-0.6v-6.1c0-1.7-1-2.8-2.5-2.8c-1.5,0-2.4,0.9-2.8,2.2v6.7c0,0.3-0.2,0.6-0.7,0.6
			h-2.6c-0.3,0-0.6-0.3-0.6-0.6V16.9z"/>
		<path d="M96.1,26.4c0-0.3,0.3-0.6,0.6-0.6h1.2c0.3,0,0.4,0.2,0.5,0.4l0.4,1.2c0.5-0.5,2-1.9,4.5-1.9c4,0,5.6,3,5.6,6.3v6.1
			c0,0.3-0.3,0.6-0.6,0.6h-2.6c-0.3,0-0.6-0.3-0.6-0.6v-6.3c0-1.6-0.9-2.7-2.4-2.7c-1.6,0-2.7,1.1-3,2v7c0,0.4-0.2,0.6-0.8,0.6h-2.3
			c-0.3,0-0.6-0.3-0.6-0.6V26.4z"/>
		<path d="M117.6,25.5c3.3,0,5.9,2.5,5.9,5.9c0,0.2,0,0.6-0.1,0.9c0,0.3-0.3,0.5-0.6,0.5h-8.1c0.1,1.3,1.2,2.8,3,2.8
			c1,0,1.9-0.4,2.5-0.8c0.3-0.2,0.6-0.3,0.8,0l1.3,1.5c0.2,0.2,0.3,0.6,0,0.8c-1,1-2.7,1.7-4.7,1.7c-3.8,0-6.5-3-6.5-6.6
			C111.2,28.5,113.8,25.5,117.6,25.5z M119.8,30.5c-0.1-1.2-1.1-2.2-2.3-2.2c-1.3,0-2.3,0.9-2.5,2.2H119.8z"/>
		<path d="M126.2,26.4c0-0.3,0.3-0.6,0.6-0.6h1.2c0.3,0,0.4,0.2,0.5,0.4l0.4,1.2c0.5-0.5,2-1.9,4.5-1.9c4,0,5.6,3,5.6,6.3v6.1
			c0,0.3-0.3,0.6-0.6,0.6h-2.6c-0.3,0-0.6-0.3-0.6-0.6v-6.3c0-1.6-0.9-2.7-2.4-2.7c-1.6,0-2.7,1.1-3,2v7c0,0.4-0.2,0.6-0.8,0.6h-2.3
			c-0.3,0-0.6-0.3-0.6-0.6V26.4z"/>
	</g>
	<g>
		<g>
			<g>
				<g>
					<path d="M150.7,4.8c1.5,0,2.7,1.2,2.7,2.7s-1.2,2.7-2.7,2.7S148,8.9,148,7.5S149.2,4.8,150.7,4.8z M150.7,9.6
						c1.2,0,2.2-1,2.2-2.2c0-1.2-1-2.2-2.2-2.2c-1.2,0-2.2,1-2.2,2.2C148.5,8.6,149.5,9.6,150.7,9.6z M149.7,6.2
						c0-0.1,0.1-0.1,0.1-0.1h1.1c0.5,0,0.9,0.3,0.9,0.9c0,0.5-0.3,0.7-0.6,0.8c0.1,0.3,0.3,0.6,0.4,0.8c0.1,0.1,0,0.2-0.1,0.2h-0.3
						c-0.1,0-0.1-0.1-0.1-0.1l-0.4-0.9h-0.5v0.8c0,0.1-0.1,0.1-0.1,0.1h-0.3c-0.1,0-0.1-0.1-0.1-0.1V6.2z M150.9,7.3
						c0.2,0,0.4-0.2,0.4-0.4c0-0.2-0.1-0.4-0.4-0.4h-0.7v0.7H150.9z"/>
				</g>
			</g>
		</g>
	</g>
	<path d="M37.8,30.7h-5v-4c1.5-1.1,2.6-2.9,2.6-4.9c0-1.2-0.7-2.1-0.7-2.3c0-0.2,1-1.7,1.1-1.7c0.2-0.3,0.3-0.6,0.3-0.9l2.9-0.7
		l-3.2-0.7c0,0,0,0,0,0c-0.2-0.3-0.5-0.6-0.8-0.9c-0.7-0.4-1.5-0.4-2.2-0.1V9.9c0-0.3-0.1-0.6-0.4-0.8L22.4,0.6
		c-0.1-0.1-0.1-0.1-0.2-0.1c0,0,0,0,0,0h0c-0.1,0-0.1,0-0.2,0l-10.7,0c-0.2,0-0.4,0.1-0.6,0.2c0,0-10.4,8.4-10.5,8.5
		C0.1,9.3,0.1,9.5,0.1,9.5L0,38.8h11h21.8v-6h5c0.6,0,1.1-0.5,1.1-1.1C38.8,31.2,38.4,30.7,37.8,30.7z M31.8,30.7h-0.9l-0.8-3
		c0.3,0,0.6-0.1,0.9-0.1L31.8,30.7z M28.4,30.7l-1-3.4c0.3,0.2,0.7,0.3,1.1,0.4l0.9,3.1H28.4z M22.2,26.4c1-0.8,2-1.5,2.1-1.5
		c0,0,0.3,0.3,0.7,0.7c-0.7,0.4-1.5,0.6-2.3,0.7C22.6,26.4,22.4,26.4,22.2,26.4z M34.3,15.6c0.3,0,0.6,0.3,0.6,0.6
		c0,0.3-0.3,0.6-0.6,0.6c-0.3,0-0.6-0.3-0.6-0.6C33.7,15.8,33.9,15.6,34.3,15.6z M27.9,17.6c-1.7,0.2-7.9,0.5-7.9,0.5
		c-0.4,0.1-0.4,0.5-0.1,0.7c0,0,7,4.8,8,5.3c1.8,0.8,3.8,0.5,4.8-1.2c1-1.7,0.5-3.8-1.2-4.8c-0.2-0.1-0.3-0.2-0.5-0.2l0.1-0.1
		c0.1,0,0.1,0,0.2,0.1c2.3,0.6,3.2,2.7,2.4,5c-0.7,1.8-2.9,2.9-5.1,2.3c-1.7-0.4-3.3-1.6-5.1-2.9c-1.1,0.5-4.1,1.5-6.3,2.1
		c-1.2-1.3-1.9-3.2-1.7-5.2c0.4-2.9,2.7-5.2,5.6-5.6C24.2,13.1,26.9,14.9,27.9,17.6z"/>
</g>
</svg>
