<?xml version="1.0" encoding="utf-8"?>
<!-- Generator: Adobe Illustrator 22.1.0, SVG Export Plug-In . SVG Version: 6.00 Build 0)  -->
<svg version="1.1" id="Layer_1" xmlns="http://www.w3.org/2000/svg" xmlns:xlink="http://www.w3.org/1999/xlink" x="0px" y="0px"
	 viewBox="0 0 270.6 69" style="enable-background:new 0 0 270.6 69;" xml:space="preserve">
<style type="text/css">
	.st0{fill:#0080CE;}
	.st1{fill:#F14F24;}
	.st2{fill:#FEC505;}
	.st3{fill:#FFFFFF;}
</style>
<title>volumen-wohnen-logo</title>
<desc>Created with Sketch.</desc>
<g>
	<g>
		<rect x="20.3" y="16.2" width="36.9" height="36.9"/>
		<path class="st0" d="M19.7,68.8H0l0.2-52.3c0-0.3,0.2-0.5,0.5-0.5l19.6-0.2L19.7,68.8z"/>
		<path class="st1" d="M39.6,0.8c0.2-0.1,0.1-0.4-0.1-0.4l-19.4,0c-0.4,0-0.7,0.1-1,0.4c0,0-18.5,15.1-18.7,15.2s-0.2,0.5-0.2,0.5
			h19.7L39.6,0.8z"/>
		<path class="st2" d="M38.7,0.6l-18.2,15c-0.5,0.4-0.8,1-0.8,1.7v51.5h38.8V17.2c0-0.6-0.3-1.1-0.7-1.5L39.9,0.6
			C39.5,0.3,39,0.3,38.7,0.6z M40.6,46.5c-7.5,0.9-13.8-5.4-12.9-12.9c0.6-5.1,4.8-9.3,9.9-9.9c7.5-0.9,13.8,5.4,12.9,12.9
			C49.8,41.7,45.7,45.9,40.6,46.5z"/>
		<path class="st2" d="M38.9,8.2"/>
		<rect x="39.9" y="54.4" class="st1" width="27.5" height="3.8"/>
		<path class="st1" d="M39.9,58.1c-1,0-1.9-0.8-1.9-1.9c0-1,0.8-1.9,1.9-1.9V58.1z"/>
		<path class="st2" d="M67.3,54.4c1,0,1.9,0.8,1.9,1.9c0,1-0.8,1.9-1.9,1.9V54.4z"/>
		<path class="st2" d="M67.3,58.1c-1,0-1.9-0.8-1.9-1.9c0-1,0.8-1.9,1.9-1.9V58.1z"/>
		<g>
			<path class="st1" d="M62.5,25.8c-1.9-1.2-4.4-0.6-5.6,1.3c-0.1,0.1-2.5,4-2.5,4c-1,0.1-2,0.5-2.8,1v0l-0.3,0.2c0,0,0,0-0.1,0
				c0,0-6.7,5.3-9.2,6.7c-2.5,1.4-15.4,5.1-15.4,5.1c-0.8,0.3-0.8,1.3-0.1,1.7l7.3,4.6c0.3,0.1,0.6,0.1,0.9-0.1c0,0,8.2-6.4,8.6-6.4
				c0.2,0,4,5.2,9.2,5.2c5.8,0,10.5-4.7,10.5-10.5c0-2.1-1.3-3.7-1.2-4.1c0.1-0.4,1.9-3,1.9-3.1C65,29.5,64.4,27,62.5,25.8z
				 M61.1,29c-0.4,0-0.8-0.4-0.8-0.8c0-0.4,0.4-0.8,0.8-0.8s0.8,0.4,0.8,0.8C61.9,28.6,61.6,29,61.1,29z"/>
			<path class="st0" d="M63.9,27.3c-0.7,0-1.3,0.6-1.3,1.3c0,0.7,0.6,1.3,1.3,1.3v0l5.7-1.3L63.9,27.3z"/>
			<g>
				<path class="st1" d="M52.7,56c-0.2,0-0.4-0.1-0.4-0.3l-2.7-9.4c-0.1-0.2,0.1-0.5,0.3-0.6c0.2-0.1,0.5,0.1,0.6,0.3l2.7,9.4
					c0.1,0.2-0.1,0.5-0.3,0.6C52.8,56,52.8,56,52.7,56z"/>
			</g>
			<g>
				<path class="st1" d="M57.1,56c-0.2,0-0.4-0.1-0.4-0.3L54,46.3c-0.1-0.2,0.1-0.5,0.3-0.6c0.2-0.1,0.5,0.1,0.6,0.3l2.7,9.4
					c0.1,0.2-0.1,0.5-0.3,0.6C57.2,56,57.2,56,57.1,56z"/>
			</g>
			<path d="M55.7,31.3c-1.7-0.6-3.6-0.3-4.9,0.2s-15.1,3.6-15.1,3.6c-0.6,0.2-0.6,1.1,0,1.3c0,0,13.6,6.1,15.6,6.6
				c3.4,0.8,6.9-0.4,8.1-3.6C60.6,36.2,58.9,32.5,55.7,31.3z"/>
			<path class="st1" d="M56.2,31.4c-1.5-0.9-3.4-0.9-4.9-0.7c-1.5,0.2-15.7,1.1-15.7,1.1c-0.6,0.1-0.8,1-0.2,1.3
				c0,0,12.4,8.1,14.3,9c3.2,1.4,6.8,0.9,8.6-2.1C60.1,37.1,59.2,33.2,56.2,31.4z"/>
			<path d="M63.5,28.2c0,0.9-1.1,1.7-2,1.7c-0.9,0-3.7-0.8-3.7-1.7s2.8-1.7,3.7-1.7C62.4,26.5,63.5,27.3,63.5,28.2z"/>
			<circle class="st3" cx="61.4" cy="28.2" r="0.8"/>
		</g>
	</g>
	<g>
		<path d="M73.7,17.9c-0.3-0.7-0.1-1.4,0.8-1.4h4.9c0.6,0,0.8,0.3,1,0.6L85,27.6c0.1,0,0.1,0,0.1,0l4.9-10.5
			c0.3-0.6,0.7-0.6,1.4-0.6h4.4c0.8,0,1.2,0.6,0.8,1.4L86.2,39.1c-0.2,0.3-0.5,0.6-1,0.6h-0.3c-0.5,0-0.8-0.3-1-0.6L73.7,17.9z"/>
		<path d="M110.1,16c6.4,0,11.6,5.4,11.6,11.8c0,6.5-5.2,11.9-11.6,11.9c-6.4,0-11.6-5.4-11.6-11.9C98.5,21.4,103.7,16,110.1,16z
			 M110.1,33.6c3,0,5.4-2.6,5.4-5.8c0-3.2-2.4-5.7-5.4-5.7c-3,0-5.4,2.5-5.4,5.7C104.7,31,107,33.6,110.1,33.6z"/>
		<path d="M126.7,2.4c0-0.6,0.5-1.1,1.1-1.1h4.7c0.6,0,1.1,0.5,1.1,1.1V38c0,0.6-0.5,1.1-1.1,1.1h-4.7c-0.6,0-1.1-0.5-1.1-1.1V2.4z"
			/>
		<path d="M140.7,2.4c0-0.6,0.5-1.1,1.1-1.1h4.6c0.6,0,1.1,0.5,1.1,1.1v11.1c0,3,1.5,4.9,4.1,4.9c2.4,0,4.2-2.2,4.5-4.2V2.4
			c0-0.8,0.3-1.1,1.2-1.1h4.3c0.6,0,1.1,0.5,1.1,1.1v20.4c0,0.6-0.5,1.1-1.1,1.1h-2.1c-0.6,0-0.9-0.4-1.1-0.8l-0.7-1.9
			c-1,0.9-3.1,3.3-7.6,3.3c-7,0-9.5-5.4-9.5-11.1V2.4z"/>
		<path d="M168.7,17.6c0-0.6,0.5-1.1,1.1-1.1h2.1c0.5,0,0.8,0.3,1,0.6l0.8,2.1c1-1.1,3.6-3.3,7.6-3.3c3.2,0,5.5,1.2,7.3,3.5
			c1-1,3.9-3.5,8-3.5c7.2,0,9.9,5.4,9.9,11.3V38c0,0.6-0.5,1.1-1.1,1.1h-4.6c-0.6,0-1.1-0.5-1.1-1.1V26.8c0-2.9-1.4-4.8-4.2-4.8
			c-3.3,0-4.7,2.4-4.7,2.4s0.1,1.1,0.1,2.1V38c0,0.6-0.5,1.1-1.1,1.1h-4.2c-0.6,0-1.1-0.5-1.1-1.1V26.8c0-2.9-1.3-4.8-4.2-4.8
			c-2.8,0-4.2,2-4.7,3.6V38c0,0.6-0.5,1.1-1.1,1.1h-4.6c-0.6,0-1.1-0.5-1.1-1.1V17.6z"/>
		<path d="M222.4,16c5.8,0,10.5,4.4,10.5,10.5c0,0.4-0.1,1.1-0.1,1.5c-0.1,0.6-0.6,1-1.1,1h-14.4c0.2,2.3,2.1,4.9,5.4,4.9
			c1.7,0,3.4-0.7,4.4-1.4c0.6-0.3,1.1-0.5,1.5,0l2.3,2.7c0.4,0.4,0.5,1-0.1,1.5c-1.9,1.7-4.7,3.1-8.4,3.1c-6.8,0-11.6-5.4-11.6-11.8
			C210.9,21.4,215.7,16,222.4,16z M226.4,25c-0.2-2.1-2-3.8-4.1-3.8c-2.3,0-4.1,1.7-4.4,3.8H226.4z"/>
		<path d="M237.7,17.6c0-0.6,0.5-1.1,1.1-1.1h2.1c0.5,0,0.8,0.3,1,0.7l0.8,2.1c0.8-0.9,3.6-3.3,8-3.3c7.2,0,10,5.4,10,11.2V38
			c0,0.6-0.5,1.1-1.1,1.1H255c-0.6,0-1.1-0.5-1.1-1.1V26.8c0-2.9-1.5-4.8-4.2-4.8c-2.9,0-4.7,2-5.3,3.6V38c0,0.8-0.3,1.1-1.4,1.1
			h-4.2c-0.6,0-1.1-0.5-1.1-1.1V17.6z"/>
		<path d="M75.1,46.8c-0.3-0.7,0.2-1.3,1-1.3h4.1c0.3,0,0.9,0.3,1,0.7l3.4,10.1h0.1l5.8-10.8c0.1-0.2,0.4-0.5,0.9-0.5h0.5
			c0.5,0,0.7,0.2,0.9,0.5l5.7,10.8h0.1l3.4-10.1c0.2-0.6,0.7-0.7,1.3-0.7h3.7c0.8,0,1.3,0.6,1,1.3L100.6,68c-0.1,0.3-0.5,0.6-1,0.6
			h-0.2c-0.5,0-0.7-0.2-0.9-0.5L91.4,55h-0.1l-7.1,13.1c-0.2,0.3-0.5,0.5-0.9,0.5h-0.3c-0.5,0-0.8-0.3-1-0.6L75.1,46.8z"/>
		<path d="M122.8,45c6.4,0,11.6,5.4,11.6,11.8c0,6.5-5.2,11.9-11.6,11.9s-11.6-5.4-11.6-11.9C111.2,50.4,116.4,45,122.8,45z
			 M122.8,62.6c3,0,5.4-2.6,5.4-5.8c0-3.2-2.4-5.7-5.4-5.7c-3,0-5.4,2.5-5.4,5.7C117.4,60,119.7,62.6,122.8,62.6z"/>
		<path d="M139.3,29.7c0-0.6,0.5-1.1,1.1-1.1h4.8c0.6,0,1.1,0.5,1.1,1.1v17.1c1.1-0.8,3.3-1.9,6-1.9c7.2,0,10.1,5.5,10.1,11.2V67
			c0,0.6-0.5,1.1-1.1,1.1h-4.6c-0.6,0-1.1-0.5-1.1-1.1V56.1c0-3.1-1.7-5.1-4.5-5.1c-2.6,0-4.3,1.7-4.9,4v12c0,0.6-0.3,1.1-1.2,1.1
			h-4.7c-0.6,0-1.1-0.5-1.1-1.1V29.7z"/>
		<path d="M168.7,46.6c0-0.6,0.5-1.1,1.1-1.1h2.1c0.5,0,0.8,0.3,1,0.7l0.8,2.1c0.8-0.9,3.6-3.3,8-3.3c7.2,0,10,5.4,10,11.2V67
			c0,0.6-0.5,1.1-1.1,1.1h-4.6c-0.6,0-1.1-0.5-1.1-1.1V55.9c0-2.9-1.5-4.8-4.2-4.8c-2.9,0-4.7,2-5.3,3.6V67c0,0.8-0.3,1.1-1.4,1.1
			h-4.2c-0.6,0-1.1-0.5-1.1-1.1V46.6z"/>
		<path d="M207,45c5.8,0,10.5,4.4,10.5,10.5c0,0.4-0.1,1.1-0.1,1.5c-0.1,0.6-0.6,1-1.1,1h-14.4c0.2,2.3,2.1,4.9,5.4,4.9
			c1.7,0,3.4-0.7,4.4-1.4c0.6-0.3,1.1-0.5,1.5,0l2.3,2.7c0.4,0.4,0.5,1-0.1,1.5c-1.9,1.7-4.7,3.1-8.4,3.1c-6.8,0-11.6-5.4-11.6-11.8
			C195.5,50.4,200.3,45,207,45z M210.9,54c-0.2-2.1-2-3.8-4.1-3.8c-2.3,0-4.1,1.7-4.4,3.8H210.9z"/>
		<path d="M222.3,46.6c0-0.6,0.5-1.1,1.1-1.1h2.1c0.5,0,0.8,0.3,1,0.7l0.8,2.1c0.8-0.9,3.6-3.3,8-3.3c7.2,0,10,5.4,10,11.2V67
			c0,0.6-0.5,1.1-1.1,1.1h-4.6c-0.6,0-1.1-0.5-1.1-1.1V55.9c0-2.9-1.5-4.8-4.2-4.8c-2.9,0-4.7,2-5.3,3.6V67c0,0.8-0.3,1.1-1.4,1.1
			h-4.2c-0.6,0-1.1-0.5-1.1-1.1V46.6z"/>
	</g>
	<g>
		<g>
			<g>
				<path d="M265.7,8.2c2.6,0,4.7,2.1,4.7,4.7s-2.1,4.7-4.7,4.7S261,15.5,261,13S263.1,8.2,265.7,8.2z M265.7,16.8
					c2.1,0,3.8-1.7,3.8-3.8c0-2.1-1.7-3.8-3.8-3.8c-2.1,0-3.8,1.7-3.8,3.8C261.9,15.1,263.6,16.8,265.7,16.8z M264,10.8
					c0-0.1,0.1-0.2,0.2-0.2h1.9c0.8,0,1.6,0.5,1.6,1.5c0,0.9-0.6,1.3-1,1.4c0.2,0.5,0.5,1,0.7,1.5c0.1,0.2,0,0.4-0.2,0.4h-0.6
					c-0.1,0-0.2-0.1-0.2-0.2l-0.7-1.5H265v1.5c0,0.1-0.1,0.2-0.2,0.2h-0.5c-0.1,0-0.2-0.1-0.2-0.2V10.8z M266.1,12.7
					c0.4,0,0.7-0.3,0.7-0.6c0-0.4-0.3-0.6-0.7-0.6H265v1.3H266.1z"/>
			</g>
		</g>
	</g>
</g>
</svg>
